<?xml version="1.0" encoding="UTF-8"?><svg id="Layer_2" xmlns="http://www.w3.org/2000/svg" viewBox="0 0 367.11 122.28"><g id="Layer_1-2"><path d="m205.04,51.34c3.56-3.77,7.34-6.94,11.46-9.72,5.99-4.04,12.49-6.67,19.75-7.15,10.67-.71,20.58,5.16,23.81,14.7.41,1.22.78,2.47.87,3.77.06.83.24,1.22,1.08.55,7.97-6.22,21.12-3.31,26,7.46.69,1.53,1.29,3.1,1.97,4.74,1.08-.95,2.03-1.95,3.21-2.67,4.94-3.01,14.07-3.54,19.84,2.22,3.15,3.13,5.59,6.82,8.44,10.19.26.31.52.61.77.93,1.73,2.23,3.88,3.13,6.81,3.09,11.59-.16,23.18-.07,34.77-.06.49,0,.99-.05,1.47.05,1.06.22,1.82.62,1.81,2-.04,13.06-.04,26.12,0,39.19,0,1.31-.47,1.79-1.72,1.64-.35-.04-.71,0-1.07,0-120.55,0-241.1,0-361.65,0-2.75,0-2.67.38-2.67-2.67,0-12.48,0-24.97,0-37.45,0-2.13.33-2.51,2.46-2.72.49-.05.98-.02,1.47-.02,12.08,0,24.16-.03,36.24.03,1.75,0,3.08-.56,4.28-1.76,2.31-2.32,4.19-4.97,6.2-7.53,2.29-2.92,4.67-5.71,8-7.57,4.64-2.61,13.83-2.49,18.48,2.35.84.87,1.08.46,1.37-.4,1.32-3.85,3.21-7.34,6.35-10.04,5.39-4.63,14.59-5.95,21.05-.99.43.33.92.96,1.07-.27,1.28-9.94,9.2-16.6,18.12-18.27,6.74-1.27,13.13.06,19.27,2.79,6.65,2.95,12.31,7.33,17.39,12.48,1.23,1.25,1.21,1.24,1.73-.41.24-.79.32-1.5.05-2.33-3.64-10.89-1.81-20.99,4.48-30.41,1.81-2.71,3.97-5.16,6.54-7.2.66-.52.86-1.14.95-1.94.68-6.04,5.88-9.29,11.65-7.28,3.33,1.16,4.94,3.69,5.23,7.07.09,1.05.48,1.7,1.23,2.36,8.19,7.17,12.54,16.17,12.67,27.09.04,3.3-.42,6.6-1.65,9.7-.63,1.6-.25,2.92.4,4.53Zm-125.95,27.05c-.16.84-.25,1.46-.4,2.06-.87,3.54-2.43,6.61-5.78,8.45-2.94,1.61-6.04,1.69-9.22.94-5.25-1.25-8.45-6.43-7.08-11.41,1.38-5.02,6.68-7.72,11.92-6.08,3.03.95,4.63,3.26,4.29,6.39-.25,2.26-1.31,4.1-3.51,4.99-1.99.8-3.75.18-5.3-1.2-1.28-1.14-1.54-2.22-.75-3.1.76-.85,1.61-.72,2.98.47.17.15.34.29.52.41.48.31.99.47,1.49.09.85-.63,1.21-1.54,1.19-2.57-.02-.94-.57-1.57-1.39-1.97-2.67-1.33-6.53-.11-7.79,2.45-1.35,2.75-.13,6.17,2.72,7.62,5.05,2.55,10.47.24,12.05-5.17.82-2.82.98-5.71.54-8.6-.43-2.82-1.99-4.85-4.73-5.81-5.04-1.75-9.44-.58-13.33,2.98-3.19,2.91-5.69,6.38-8.15,9.88-1.47,2.09-3.19,3.81-5.75,4.55-2.04.59-4.13.69-6.22.68-11.19-.07-22.38.19-33.57-.15-1.12-.03-1.46.38-1.46,1.46.03,10.92.03,21.85,0,32.77,0,1.11.37,1.48,1.48,1.46,3.66-.05,7.31-.05,10.97,0,1.11.02,1.48-.35,1.46-1.46-.05-3.43-.02-6.87-.02-10.3,0-2.18.03-4.37,0-6.55-.01-1.04.51-1.3,1.43-1.22,1.05.09.84.87.85,1.49.01,5.39,0,10.79,0,16.18q0,1.83,1.83,1.83c108.83,0,217.66,0,326.49,0q1.94,0,1.95-2.01c0-5.35,0-10.7,0-16.05,0-1.31.43-1.66,1.59-1.44,1.06.2.8,1.06.8,1.71.03,5.39.04,10.79,0,16.18,0,1.19.32,1.66,1.59,1.63,3.34-.08,6.69-.02,10.03-.03,1.8,0,1.81,0,1.81-1.76,0-10.61,0-21.22,0-31.83,0-1.9-.02-1.92-1.97-1.92-10.66,0-21.31-.14-31.97.05-5.87.11-10.36-1.73-13.42-6.95-1.66-2.84-3.87-5.34-6.25-7.64-4.01-3.88-8.6-5.46-14.05-3.54-2.25.79-3.86,2.38-4.38,4.7-.9,4-.78,8,1.13,11.73,2.27,4.44,9.02,5.51,12.67,2.1,2-1.86,2.34-5.16.76-7.33-1.51-2.08-5.31-2.88-7.52-1.6-.89.51-1.17,1.28-1.1,2.25.08.98.34,1.9,1.33,2.29.91.36,1.48-.35,2.08-.88.13-.12.25-.26.39-.36.75-.57,1.51-.54,2.19.07.64.58.76,1.37.31,2.07-1.49,2.32-4.65,3.62-7.18,1.82-2.02-1.44-2.89-3.51-2.61-5.94.29-2.51,1.8-4.12,4.19-4.87,1.5-.47,3.02-.61,4.62-.36,3.54.54,6.05,2.36,7.24,5.74,1.19,3.41.41,6.5-1.97,9.18-4.24,4.78-15.86,5.41-19.23-4.33-.43-1.24-.73-2.53-1.12-3.9-.12.32-.21.52-.28.73-3.77,11.15-15.14,17.51-26.57,14.72-8.82-2.15-15.12-7.69-19.74-15.31-1.27-2.1-2.51-4.2-4.13-6.06-5.78-6.66-15.35-8.97-23.33-5.13-2.97,1.43-5.88,2.99-8.77,4.56-.32.18-.6.4-.67.78-.7,3.55-1.91,6.93-3.35,10.29.69-.34,1.31-.74,1.88-1.2,3.67-2.89,7.12-6.09,11.16-8.5,5.68-3.39,11.6-4.41,17.87-1.72,7.04,3.02,11.32,10.71,9.99,17.9-1.62,8.75-10.62,14.71-19.33,12.8-6.26-1.37-10.15-5.35-10.77-11.33-.45-4.34,1.55-9.52,6.31-11.51,5.92-2.47,11.96.57,12.8,6.49.51,3.57-2.44,6.77-6.64,6.97-3.84.18-5.54-2.68-5.84-6.11-.08-.94.47-1.65,1.43-1.82.99-.17,1.61.39,1.9,1.3.2.63.3,1.3.5,1.93.22.68.67,1.16,1.44,1.21,1.32.09,2.52-.23,3.32-1.34.72-1.01.54-2.12.05-3.18-1.25-2.67-4.46-3.55-7.63-2.28-4.88,1.95-5.76,10.37-1.28,13.92,6.17,4.9,16.43,2.46,19.5-4.82,3.51-8.33-2.82-17.87-12.04-18.2-3.92-.14-7.33,1.24-10.57,3.23-4.04,2.49-7.39,5.88-11.22,8.65-1.38,1-2.8,1.96-4.52,2.19-.95.13-1.48.63-1.99,1.36-3.46,4.99-7.64,9.28-12.56,12.85-1.54,1.12-1.93,1.13-3.45.03-4.59-3.32-8.57-7.26-11.86-11.86-.97-1.35-1.91-2.43-3.72-2.65-1.22-.15-2.28-.98-3.28-1.74-1.39-1.04-2.76-2.12-4.1-3.22-2.62-2.15-5.2-4.35-8.13-6.08-4.7-2.77-9.57-3.78-14.8-1.52-6.42,2.78-9.7,10.26-7.21,16.56,2.57,6.51,11.07,9.77,17.35,6.64,3.14-1.56,5.07-3.92,5.29-7.59.2-3.33-1.52-6.56-4.36-7.76-3.39-1.44-6.91-.09-7.82,3-.27.93-.25,1.8.56,2.64.24-.56.4-1.01.61-1.44,1.27-2.65,4.4-3.74,7.03-2.45,2.61,1.28,3.68,4.5,2.35,7.07-1.37,2.66-4.62,3.68-7.19,2.17-.85-.5-1.73-.88-2.65-1.21-3.43-1.26-4.96-4.31-3.97-7.82,1.23-4.36,5.79-6.78,10.66-5.71,8.52,1.86,10.19,12.63,6.17,17.88-3.59,4.69-8.49,6.57-14.27,5.66-6.25-.99-10.98-4.29-13.13-10.41-2.16-6.15-.67-11.76,3.69-16.47,5.32-5.74,13.7-7.03,21.04-3.5,3.74,1.79,6.93,4.36,10.1,6.96,1.74,1.43,3.42,2.95,5.69,4.38-1.79-3.64-2.92-7.09-3.7-10.65-.1-.45-.43-.64-.8-.83-2.36-1.26-4.7-2.54-7.07-3.78-6.22-3.25-12.52-3.56-18.84-.34-4.46,2.27-7.43,5.99-9.85,10.26-3.52,6.21-8.41,11.02-14.9,14.13-9.02,4.32-18.74,2.87-25.93-3.85-2.96-2.77-5.03-6.08-6.14-10.2Zm54.04-12.82c.55-.27,1.1-.53,1.64-.81,4.63-2.32,9.54-2.9,14.58-1.97,3.67.68,6.95,2.47,10.21,4.24.7.38,1.62,1.16,2.11.96.83-.34.22-1.47.3-2.24.37-3.64.19-7.21-2-10.39-1.04-1.51-2.08-3-3.36-4.32-5.6-5.78-12.52-9.2-20.23-11.14-6.4-1.61-12.43-.9-18.02,2.88-4.48,3.03-7.44,9.4-6.33,14.4.93,4.18,3.38,7.24,7.57,8.4,4.32,1.19,8.2-.03,11.43-3.14,1.15-1.11,1.6-2.57,1.59-4.14-.01-4.74-3.71-6.04-7.28-4.66-2.06.8-2.84,3.21-1.81,5.02.48.83,1.21,1.27,2.17,1.38.99.11,1.11-.65,1.42-1.29.38-.79,1.09-1.06,1.91-.82.9.26,1.26.96,1.19,1.85-.15,2.19-2.22,3.94-4.42,3.77-4.2-.32-6.87-4.02-5.88-8.14.81-3.4,3.62-5.57,7.46-5.76,3.67-.18,6.86,1.86,8.03,5.24,1.37,3.96.4,7.45-2.29,10.69Zm102.44.4c-2.1-1.79-3.21-4.05-3.59-6.72-.47-3.31,1.28-7.02,4.06-8.57,3.02-1.68,7.25-1.32,9.78.97,2.21,2,2.93,4.53,2.09,7.41-.81,2.75-2.77,4.14-5.57,4.46-2.31.27-4.39-1.41-4.55-3.69-.06-.89.2-1.62,1.11-1.9.96-.29,1.62.14,2.05,1.02.58,1.2,1.38,1.4,2.53.7,1.45-.88,1.76-3.23.75-4.77-1.4-2.14-6.72-2.75-8.31.66-1.04,2.23-.7,5.24,1.09,6.96,3.03,2.91,6.7,4.11,10.81,3.22,5.95-1.29,9.41-7.47,8.01-13.67-2.1-9.34-11.95-13.49-19.18-12.92-4.76.38-9.28,1.72-13.58,3.75-6.37,3-11.9,7.02-15.48,13.28-.95,1.67-1.8,3.44-1.73,5.41.07,1.91.25,3.82.19,5.74-.03.97.39.76.96.46,1.62-.85,3.23-1.72,4.87-2.51,3.27-1.56,6.61-2.8,10.34-2.85,4.82-.06,9.24,1.1,13.35,3.56Zm-124.35-2.15c.68,2.43.81,4.91.69,7.41-.28,5.63-3.99,10.02-9.52,10.77-8.66,1.16-14.07-4.07-12.78-12.02.57-3.53,2.25-6.28,5.95-7.34,4.81-1.38,9.08.96,9.81,5.47.44,2.71-.45,5.14-2.13,7.22-1.37,1.7-3.75,2.17-5.73,1.37-2.07-.83-3.46-2.89-3.38-5,.09-2.22,1.52-4.12,3.61-4.84.97-.34,1.97-.36,3.06-.15-.3-.59-.77-.71-1.17-.78-2.45-.41-5.25-.18-6.35,3.35-1.34,4.3.29,8.06,4.06,9.07.77.21,1.57.32,2.37.39,4.31.37,7.6-2.03,8.51-6.24.83-3.83.11-7.47-1.73-10.85-4.13-7.62-13.8-9.13-19.3-2.84-4.08,4.66-5.69,10.37-5.13,16.53.9,9.9,11.65,18.38,23.13,15.54,8.01-1.99,13.64-7.08,17.75-14.03,1.34-2.27,2.72-4.5,4.48-6.48.94-1.05,1.91-2.08,2.66-2.89-6.53,3.48-13.55,2.73-18.86-3.65Zm126.25,3.53c1.39,1.27,2.73,2.57,3.92,4.02,1.21,1.49,2.27,3.08,3.21,4.76,1.22,2.19,2.6,4.26,4.3,6.11,5.3,5.75,11.57,9.42,19.68,9.13,7.38-.26,15.02-6.2,16.78-13.38,1.72-7.05-.03-13.47-4.45-19.08-3.04-3.85-8.95-4.99-13.4-3-6.77,3.04-9.53,11.89-7.36,17.93,1.74,4.83,8.94,6.61,12.9,3.29.73-.61,1.33-1.36,1.59-2.27.7-2.45.63-4.86-.67-7.11-1.26-2.16-4.93-2.73-6.81-1.04.24-.02.42-.02.58-.05,2.66-.41,5.08,1.13,5.86,3.73.72,2.4-.5,5.09-2.79,6.16-2.41,1.13-5.29.31-6.67-1.97-.46-.76-.83-1.58-1.14-2.41-1.11-3.04-.41-6.26,1.72-8.12,3.39-2.98,9.64-2.11,12.05,1.7,3.39,5.37,2.59,15.08-7.32,16.33-6.48.82-11.55-2.52-13.08-8.87-.32-1.31-.4-2.63-.41-3.98-.02-1.78.48-3.49.75-5.32-7.68,6.47-10.94,7.04-19.24,3.43Zm-36.93-24.04c.15-.34.25-.49.28-.65.19-1.23.45-2.46.54-3.7.73-10.23-3.71-18.36-10.43-25.56-.46-.49-.77-.5-1.29.02-3.44,3.47-7.73,3.5-11.2.08-.59-.58-.94-.62-1.5-.01-5.49,5.92-9.5,12.57-10.33,20.8-.3,2.98.07,5.89.69,8.9.21-.18.3-.22.34-.29.29-.5.57-1.01.86-1.51,3.48-6.09,7.98-11.24,13.81-15.21,1.22-.83,2.22-.79,3.41.02,3.67,2.52,6.85,5.55,9.62,9.02,1.98,2.47,3.64,5.14,5.2,8.09Zm-96.01,27.16c.26-3.19-.44-4.99-2.31-6.28-2.68-1.85-7.49-1.44-9.64,1.01-2.54,2.89-2.89,6.37-1.97,9.94.86,3.37,3.34,5.14,6.6,5.93.65.16,1.32.25,1.98.3,5.26.39,9.94-1.93,11.49-7.63,1.04-3.8.64-7.54-.79-11.14-5.32-13.38-19.61-11.81-25.28-4.63-4.47,5.66-6.25,12.24-4.91,19.34,2.17,11.42,14.16,18.92,25.68,16.26,8.78-2.03,15.04-7.45,19.63-14.98,1.37-2.25,2.72-4.49,4.45-6.49,5.43-6.28,14.67-8.72,22.28-5.8,3.13,1.2,6.06,2.82,8.99,4.43.45.25,1.07.99,1.45.38.32-.52.03-1.4-.48-1.96-.26-.29-.65-.47-1-.65-1.82-.95-3.63-1.91-5.47-2.82-4.56-2.27-9.33-3.12-14.4-2.15-7.61,1.47-12.84,6.07-16.59,12.57-1.91,3.31-4.05,6.42-6.91,8.96-5.36,4.76-11.44,7.86-18.82,6.95-7.75-.96-13.4-5.14-16.17-12.47-2.59-6.84-.92-13.4,2.83-19.39,4.27-6.81,12.81-8.04,18.85-2.74,4.39,3.86,5.96,8.99,5,14.65-1.09,6.42-7.25,9.35-13.19,6.56-1.47-.69-2.58-1.78-3.15-3.31-1.03-2.75-.77-5.46.69-7.98,1.56-2.67,6.11-3.33,8.19-1.11,1.11,1.18,2.26,2.41,2.96,4.25Zm101.27.98c2.41-1.26,4.77-2.5,7.12-3.74,4.58-2.41,9.38-3.31,14.48-2.15,6.82,1.55,11.46,5.86,14.8,11.78,1.99,3.52,4.37,6.73,7.41,9.4,5.49,4.83,11.74,7.62,19.22,7.31,7.75-.33,16.22-6.41,18.63-13.79,2.6-7.96,1.07-15.42-3.9-21.98-5.45-7.19-16.08-7.66-22.07-1.19-4.07,4.4-5.46,9.75-4.43,15.61.74,4.24,3.14,7.23,7.48,8.33,2.57.66,5.14.48,7.63-.39,2.61-.91,4.34-2.74,5.17-5.38.47-1.51.46-3.07.33-4.63-.41-4.96-3.61-7.8-8.55-7.53-3.99.22-6.35,3.2-5.63,7.29.39-1.38,1.42-2.16,2.09-3.19,1.9-2.92,6.64-3.08,8.75-.29,3.67,4.84,1.09,11.47-4.83,12.45-5.57.92-9.58-1.81-10.64-7.35-.72-3.79.11-7.38,1.91-10.71,4.36-8.08,14.76-9.72,20.54-3,4.47,5.2,6.36,11.49,5.1,18.32-1.97,10.72-12.98,17.61-23.77,15-8.24-2-14.06-7.23-18.28-14.39-1.29-2.19-2.67-4.31-4.31-6.27-5.98-7.12-16.42-9.74-25.03-6.28-2.53,1.02-4.9,2.35-7.33,3.55-1.32.65-2.25,1.42-1.9,3.22Zm-.56-7.39c.4-5.02-1.93-11.01-3.99-16.92-2.93-8.41-8.49-15.06-15.8-20.2-1.01-.71-1.82-.78-2.88-.04-3.59,2.48-6.67,5.47-9.4,8.86-4.09,5.09-6.66,10.86-8.31,17.17-.95,3.63-1.98,7.21-2.1,10.97-.25,7.65,1.54,14.76,5.4,21.44,3.68,6.37,8.49,11.61,14.3,16.04,1.12.85,2,.8,3.09-.04,5.86-4.5,10.75-9.79,14.42-16.29,3.44-6.09,5.2-12.53,5.27-20.98ZM22.42,81.81v.02c-6.06,0-12.13,0-18.19,0-.4,0-.81,0-1.2.06-.5.08-.59.48-.58.91.01.4.17.71.6.75.44.04.89.04,1.34.04,11.46,0,22.92-.06,34.38.04,4.54.04,7.96-1.56,10.46-5.43,2.08-3.22,4.45-6.24,7.23-8.92,3.13-3.01,6.7-4.74,11.18-4.45,4.83.31,8.03,2.98,8.8,7.74.41,2.54.17,5.07-.43,7.56-1.31,5.46-4.79,7.95-10.36,7.32-2.88-.33-5.23-1.62-6.25-4.52-.81-2.3-.53-4.54,1.22-6.35,1.95-2.01,4.39-2.42,7.03-1.68,2.54.71,3.36,3.25,1.79,5.39-.86,1.17-2.08,1.38-3.27.54-.4-.28-.73-.66-1.13-.94-.4-.28-.85-.27-1.22.09-.35.34-.27.7-.06,1.1,1.03,1.92,3.85,2.83,5.7,1.73,1.9-1.12,2.72-2.92,2.66-5.07-.06-2.12-1.22-3.58-3.13-4.43-1.34-.6-2.76-.64-4.2-.58-3.35.15-6.13,2.08-7.2,5.09-1.18,3.35-.52,6.38,2,8.85,5.05,4.95,14.04,3.34,17.15-2.99,1.46-2.97,1.74-6.16,1.73-9.38-.01-3.44-1.04-6.41-3.92-8.67-3.95-3.09-12.74-3.87-17.61.86-1.02.99-2.04,2-2.95,3.09-2.66,3.17-4.94,6.67-7.86,9.63-1.68,1.7-3.61,2.62-6.07,2.59-5.88-.07-11.77-.02-17.66-.02Zm322.98,1.79c5.75,0,11.5.02,17.25-.03.71,0,1.96.55,1.95-.86,0-1.39-1.25-.86-1.96-.86-11.73-.04-23.45-.05-35.18-.04-1.68,0-3.14-.51-4.45-1.54-1.09-.86-2.06-1.84-2.93-2.92-2.26-2.82-4.49-5.65-6.77-8.46-3.79-4.67-8.62-6.46-14.59-5.5-4.77.77-8.59,4.29-9.09,8.98-.25,2.34-.18,4.71.2,7.06,1.2,7.46,6.65,11.29,13.93,9.75,4.66-.99,7.5-4.85,7.05-9.58-.46-4.79-5.61-7.96-10.74-6.63-3.2.83-4.69,3.09-4.07,6.3.37,1.93,1.45,3.39,3.41,3.92,1.85.5,3.29-.39,4.51-1.69.43-.46.69-1.02.16-1.54-.52-.51-1.05-.23-1.53.19-.36.32-.73.66-1.15.9-.71.41-1.45.41-2.15-.04-2.12-1.37-1.98-4.62.24-5.8,2.76-1.47,6.93-.38,8.57,2.23,1.74,2.77,1.02,6.44-1.66,8.48-4.45,3.38-11.22,1.78-13.54-3.28-1.41-3.06-1.74-6.33-1.34-9.67.59-4.95,3.86-7.84,8.84-8.14,4.42-.27,7.97,1.41,11.07,4.38,2.95,2.82,5.41,6.06,7.65,9.43,2.32,3.48,5.5,5.01,9.61,4.97,5.57-.06,11.15-.01,16.72-.01Zm-143.13-36.83c1.28-3.75,1.81-7.35,1.64-11.09-.47-10-4.79-18.03-12.36-24.39-.98-.82-1.42-1.63-1.42-2.92.01-2.21-.77-4.11-2.86-5.22-4.28-2.27-8.93,0-9.36,4.83-.17,1.91-1.07,2.87-2.31,4-9.3,8.49-13.18,18.9-10.89,31.41.2,1.09.47,2.21,1.08,3.25.9-1.23,1-2.4.67-3.76-.75-3.05-.93-6.2-.54-9.3,1.06-8.4,5.24-15.22,11.07-21.17.58-.6.94-.71,1.56.05,3.04,3.74,7.77,3.73,10.91-.01.54-.65.87-.7,1.46-.1,1.7,1.71,3.3,3.5,4.7,5.47,5.42,7.6,7.96,15.88,5.88,25.21-.3,1.34-.09,2.44.78,3.75Zm22.94,55.35c7.8.02,13.9-3.86,16.01-9.36,2.15-5.6,1.26-10.86-2.47-15.46-3.95-4.89-9.27-6.77-15.47-5.99-4,.5-7.39,2.47-10.64,4.75-3.9,2.74-7.23,6.23-11.33,8.73-.32.19-.56.57-.75.91-.2.37-.71.79-.39,1.18.37.44.93.05,1.36-.12,1.25-.51,2.35-1.27,3.41-2.09,3.65-2.78,6.98-5.98,10.9-8.4,4.38-2.7,9-4.05,14.14-2.59,7.22,2.06,11.73,9.44,10.06,16.46-1.33,5.55-6.47,9.72-12.55,10.13-4.93.34-11.59-2.79-12.11-9.23-.4-4.96,2.72-9.04,7.65-9.48,2.83-.25,5.66,1.9,6.13,4.67.34,2.03-.92,3.69-3.2,4.19-2.03.44-3.19-.35-3.74-2.57-.09-.35-.15-.7-.23-1.04-.11-.5-.43-.8-.94-.76-.52.04-.73.41-.81.91-.31,2,1.22,4.67,3.15,5.23,2.27.66,4.35.08,6.09-1.46,1.67-1.49,1.96-3.44,1.41-5.52-1.05-3.97-5.1-6.25-9.48-5.37-7.03,1.41-10.46,10.62-6.13,16.65,2.78,3.87,6.71,5.57,9.92,5.64Zm-84.29-10.12c-.45-.89-.39-1.73-.88-2.4-2-2.72-1.34-5.74,1.69-7.29,2.6-1.33,5.15-.89,7.45.72,4.6,3.22,4.54,10.95-.08,14.53-5.37,4.16-12.24,3.39-17.31-.99-3.34-2.89-4.73-6.71-4.07-11.06,1.42-9.33,10.82-14.75,19.71-11.52,4.45,1.62,8.06,4.51,11.63,7.48,2.06,1.71,4.07,3.48,6.4,4.82.8.46,1.61.87,2.59.79-.42-1.84-1.93-2.52-3.19-3.48-3.19-2.44-6.23-5.05-9.46-7.44-4.83-3.58-10.06-5.83-16.31-4.75-9.77,1.69-15.94,12.1-12.43,21.13,2.38,6.13,8.78,9.95,15.98,9.53,7.51-.44,12.54-6.38,11.67-13.79-.5-4.27-3.45-7.53-7.63-8.43-4.61-.99-8.81,1.53-9.76,5.88-.61,2.79.97,5.4,4,6.26Zm21.54-33.57c1.28-2.29.21-4.05-1.45-5.72-1.89-1.9-3.76-3.8-5.85-5.49-7.07-5.71-14.72-10.06-24.1-10.41-6.25-.23-11.81,1.48-16.36,5.89-4.05,3.92-6.1,8.71-5.31,14.35.75,5.32,3.79,9.19,8.89,10.93,5.07,1.73,9.79.48,13.86-2.95,2.9-2.44,3.85-6.25,2.58-9.83-.89-2.5-2.6-4.19-5.27-4.59-2.9-.43-5.68-.06-7.62,2.46-1.61,2.08-1.84,4.43-.63,6.79,1.06,2.07,2.86,2.99,5.17,2.86,1.52-.08,2.74-1.14,3-2.59.11-.6.12-1.23-.59-1.45-.67-.21-.97.29-1.13.84-.36,1.18-1.16,1.44-2.29,1.23-1.99-.38-3.23-2.13-2.98-4.24.27-2.26,1.86-3.69,4.58-4.13,2.52-.41,4.83.78,5.84,3.02,1.25,2.75.49,6.19-1.82,8.18-1.41,1.21-3.02,2.05-4.78,2.61-7.99,2.56-13.99-3.31-14.89-8.86-1-6.16,1.39-11.17,6.26-14.84,5.23-3.93,11.22-5.07,17.63-3.58,11.81,2.74,21.71,8.16,27.27,19.51Zm43.1.22c.95-2.21,1.95-4.14,3.32-5.85,5.35-6.7,12.46-10.66,20.53-13.07,4.01-1.2,8.11-1.94,12.26-1.03,7.22,1.58,12.68,5.3,14.79,12.85,2.41,8.65-4.93,16.71-13.02,15.07-3.01-.61-5.72-1.81-7.61-4.32-1.84-2.44-1.66-6.19.27-8.32,1.67-1.84,4.84-2.18,7.29-.78,2.58,1.47,3.01,5.16.81,6.91-1.57,1.24-3.07.95-3.95-.79-.25-.51-.58-.82-1.15-.6-.53.21-.66.67-.59,1.21.21,1.57,1.47,2.73,3.09,2.82,3.91.23,6.69-3.36,5.67-7.3-.73-2.82-3.11-4.72-6.13-4.9-3.92-.24-6.53,1.22-7.78,4.34-1.59,3.97-.3,8.19,3.33,10.89,8.43,6.28,20.05,1.98,21.8-8.23,1.06-6.14-1.24-11.34-5.86-15.41-5.88-5.19-12.88-6.24-20.3-4.77-10.66,2.1-18.8,8.4-26.04,16.12-1.41,1.5-1.58,3.09-.73,5.19Zm-60,35.16c2.48-.01,4.43-1.92,4.45-4.37.02-2.45-2.03-4.57-4.45-4.59-2.43-.02-4.49,2.05-4.49,4.52,0,2.54,1.93,4.44,4.5,4.43Zm118.56-22.03c-.01,2.48,1.99,4.54,4.44,4.57,2.4.02,4.53-2.12,4.51-4.53-.03-2.47-1.94-4.39-4.41-4.42-2.58-.03-4.52,1.85-4.54,4.39Zm-160.3.06c0-2.58-1.86-4.45-4.45-4.44-2.52.01-4.36,1.85-4.39,4.37-.02,2.55,1.89,4.56,4.38,4.59,2.47.03,4.44-1.97,4.45-4.51Z"/><path d="m203.39,65.46c-.12,9.1-3.25,16.91-8.54,23.93-2.8,3.72-6.11,6.96-9.74,9.86-.71.57-1.29.76-2.11.11-6.96-5.53-12.53-12.13-15.85-20.47-3-7.55-3.17-15.26-1.32-23.09,2.51-10.63,7.8-19.54,16.48-26.31,1.67-1.3,1.69-1.3,3.41.05,9.32,7.34,14.7,17.01,16.87,28.57.47,2.5.78,5.01.8,7.35Zm-.85-.88c.04-1.33-.21-3.63-.62-5.92-2.08-11.59-7.41-21.26-16.74-28.62-.92-.72-1.51-.68-2.4.02-7.71,6.02-12.76,13.83-15.48,23.16-2.17,7.45-2.74,14.96-.42,22.5,2.89,9.41,8.74,16.72,16.3,22.8.67.54,1.14.39,1.75-.1,2.88-2.28,5.51-4.8,7.85-7.63,6.06-7.32,9.83-15.54,9.78-26.23Z"/><path d="m189.25,91.81c0,2.86-2.32,5.23-5.14,5.26-2.87.04-5.3-2.38-5.3-5.27,0-2.89,2.43-5.3,5.3-5.26,2.82.04,5.13,2.41,5.13,5.27Zm-5.31,4.41c2.58.04,4.56-1.82,4.61-4.33.05-2.51-1.9-4.48-4.43-4.5-2.52-.02-4.45,1.81-4.51,4.26-.06,2.56,1.81,4.53,4.34,4.57Z"/></g></svg>