<?xml version="1.0" encoding="UTF-8"?><svg id="Layer_2" xmlns="http://www.w3.org/2000/svg" viewBox="0 0 878 878"><defs><style>.cls-1{fill:#fff;}.cls-2{fill:#e10000;}</style></defs><g id="Layer_1-2"><rect class="cls-2" width="878" height="878"/><path class="cls-1" d="m523.91,465.33c-2.91.67-7.06,6.33-9.92,9.8-3.58,4.35-6.68,9.12-9.85,13.79-8.35,12.31-16.55,24.73-24.99,36.98-3.56,5.16-6.41,9.06-10.16,14.09-1.77,2.37-7.92,10.16-6.22,8.25.22-.25-2.43,3.23-3.78,3.75-2,.77-4-.27-5.26-2.01-20.53-28.4-41.02-56.75-61.36-84.88-1.07-1.48-3.21-1.73-4.55-.5-1.74,1.59-1.39,3.92-1.4,5.95-.11,26-.16,52-.21,78-.01,6.83.07,13.67-.02,20.5-.02,1.51-.25,3.02-.53,4.98-.21,1.46-1.44,2.55-2.91,2.58-17.22.3-34.18.31-51.51.01-2.55-.04-4.59-2.13-4.59-4.67v-222.23c0-2.19,1.52-4.1,3.66-4.57.82-.18,1.61-.3,2.4-.31,16.66-.05,33.33.06,49.99.04,3.82,0,6.13,1.43,8.44,4.78,9.72,14.05,20.06,27.67,29.99,41.58,6.52,9.14,12.67,18.55,19.09,27.76,3.61,5.18,7.33,10.29,11.22,15.25.13.16.27.32.41.47,2.28,2.37,5.97,2.67,8.82,1.02,3.35-1.93,5.69-4.83,7.87-7.92,7.45-10.58,14.87-21.18,22.3-31.77,8.54-12.17,17.09-24.34,25.63-36.52,2.57-3.66,4.69-7.74,7.81-10.85,2.02-2.01,5.44-3.59,8.27-3.65,15.99-.32,31.99-.16,47.99-.05.54,0,1.07.06,1.62.14,2.64.42,4.56,2.73,4.56,5.4v221.67c0,2.01-1.47,3.72-3.46,4.02-1.32.2-2.55.36-3.78.37-14,.09-27.99.11-41.99.08-6.7-.02-8.15-1.42-8.16-8.35-.07-29.5-.06-59-.05-88.5,0-4.9.7-15.85-5.39-14.52Z"/><path class="cls-1" d="m768.88,346.26c1.77.19,3.12,1.67,3.16,3.45.27,12.52,1.83,25.43-1.52,38.14-.76,2.87-4.06,5.17-6.41,7.51-7.63,7.57-15.35,15.05-23.57,23.08-.48.47-.56,1.21-.2,1.76.7,1.08,1.46,2.31,2.5,3.23,3.35,2.96,6.73,5.95,10.44,8.43,10.61,7.09,16.93,17.67,23.13,28.27,2.21,3.78,3.1,8.34,4.58,12.55,3.59,10.22,4.19,20.84,3.3,31.45-.5,6.01-2.15,11.98-3.83,17.81-2.72,9.46-7.44,17.98-13.49,25.73-9.78,12.52-22.65,20.34-37.55,25.5-14.98,5.18-30.3,3.84-45.37,2.33-7.53-.75-15.04-4.89-21.86-8.74-12.35-6.97-22.27-16.9-29.39-29.18-4.6-7.93-8.81-16.19-8.8-26.02,0-2.02,1.36-3.81,3.32-4.33.72-.19,1.43-.33,2.15-.34,10.33-.14,20.66-.06,30.99-.15,3.61-.03,5.47,1.58,7.22,4.83,7.37,13.68,18.25,23.02,34.47,23,6.04,0,12.25-2.51,18.08-4.68,9.12-3.41,15.37-10.18,19.47-18.94.62-1.33,1.4-2.78,1.41-4.19.09-9.24,1.84-18.88-3.84-27.14-2.76-4.02-6.23-7.81-10.09-10.77-9.97-7.63-21.24-11.32-34.04-9.97-5.27.55-10.66.21-15.98-.08-5.54-.31-7.65-2.71-7.78-8.27-.11-4.66-.37-10.51-.2-13.99,0-14.52,7.34-23.4,17.29-31.67,4.2-3.49,8.5-6.87,12.5-10.58.6-.56.96-1.38,1.33-2.45.62-1.77-.47-3.68-2.3-4.06-4.21-.87-7.98-1.78-11.78-1.88-14.15-.37-28.32-.19-42.48-.28-7.8-.05-9.46-1.68-9.51-9.34-.05-8-.03-16,.05-24,.01-1.03.12-2.06.26-3.04.22-1.61,1.5-2.86,3.11-3.04,17.87-1.98,112.1-2.03,131.25.07Z"/><path class="cls-1" d="m132.67,572.27v-223.53c0-2.05,1.64-3.73,3.69-3.78,16.53-.39,32.73-.58,49.31.24,2.21.11,4.03,1.79,4.33,3.99.19,1.41.34,2.65.34,3.9.04,71.82.05,143.65.04,215.47,0,6.68-1.08,8.11-7.14,8.17-14.99.15-29.99.06-44.98-.02-.73,0-1.46-.12-2.26-.3-1.94-.42-3.32-2.16-3.32-4.15Z"/><path class="cls-1" d="m258.24,532.75c-23.24,0-33.96-17.96-35.35-29.54-1.48-12.31,1.27-24.02,9.81-32.13,6.44-6.11,14.77-10.56,25.3-10.09,15.63.71,35.68,14.54,35.39,36.53-.23,17.73-17.39,35.23-35.15,35.23Z"/></g></svg>